<svg version="1" xmlns="http://www.w3.org/2000/svg" width="801.333" height="801.333" viewBox="0 0 601.000000 601.000000"><path d="M123 5c-.1 2.5-.2 34.6-.3 71.5l-.2 67H4.5l-.1 189.8c-.1 173.7 0 189.8 1.5 190.5.9.4 11.8.7 24.3.6 20.1-.1 22.8.1 23.2 1.5.3.9.8 12.2 1.1 25.1.8 33.8 1.4 48.2 2 48.8.2.3 5.5-2.4 11.7-5.9 6.2-3.4 12.9-7.1 14.8-8.1 1.9-1 4.2-2.3 5-2.8 1.4-.9 18.1-10.2 30.5-17 3.3-1.8 9.4-5.2 13.5-7.5s10.2-5.7 13.5-7.5c3.3-1.8 11.4-6.3 18-10s14.7-8.2 18-10c3.3-1.8 7.4-4.1 9-5 2.8-1.5 12.3-1.7 119.7-1.6 77.1.1 116.9-.2 117.1-.9.2-.6.3-20 .3-43.3-.1-23.2 0-42.2.2-42.2.1 0 8 4.3 17.5 9.6s20 11.2 23.4 13c3.4 1.9 8.5 4.7 11.3 6.4 2.8 1.6 5.3 3 5.5 3 .2 0 2.8 1.4 5.7 3.1 2.9 1.8 9.1 5.2 13.8 7.7 4.7 2.5 9.7 5.4 11.2 6.4 1.4 1 2.9 1.8 3.3 1.8.4 0 3.3 1.6 6.6 3.5 3.2 1.8 6 3.1 6.3 2.7.2-.4.7-12.2 1.1-26.2.6-22.2.9-33.5 1.4-45.5l.1-3 29.8.1c16.3 0 30.2-.4 30.9-.9.9-.6 1.2-50 1.2-209.8 0-114.9-.4-209-.7-209-.4-.1-107-.2-236.9-.3L123 .5V5zm448 205.5V395h-61l-.1 2.2c-.4 15.1-.8 27.5-1.1 38-.2 7.1-.5 12.8-.8 12.8-.4 0-21.6-10.7-38.5-19.5-4.9-2.6-15.5-8.1-23.5-12.2s-14.9-7.9-15.4-8.3c-.5-.5-.9-55.1-.8-131.2 0-71.7-.2-131-.4-131.9-.4-1.6-11.4-1.7-139.9-1.7-76.6 0-139.7-.2-140.2-.5-.6-.4-1-115.2-.4-116.5 0-.1 95.1-.2 211.1-.2h211v184.5zm-449.9-44.6c1.5.1 1.6 10.4 1.7 122.8.1 67.6.1 124.8.1 127.3l.1 4.5h272.5l4.7 2.2c4.7 2.2 4.8 2.3 4.9 7 0 4.4 0 51.6-.1 66v6.3H187.7l-54.9 30.6c-30.3 16.8-55.2 30.4-55.4 30.2-.3-.3-1.4-32.1-1.8-52.8l-.1-7.5L51 502l-24.5-.5v-335l2.4-.5c1.9-.4 84.4-.5 92.2-.1z"/></svg>