<svg xmlns="http://www.w3.org/2000/svg" viewBox="0 0 484.08 484.08"><defs><style>.cls-1{opacity:0.5;isolation:isolate;}.cls-2{fill:#f8c81c;}</style></defs><title>Asset 1</title><g id="Layer_2" data-name="Layer 2"><g id="Layer_1-2" data-name="Layer 1"><g id="Layer_2-2" data-name="Layer 2"><circle class="cls-1" cx="242.04" cy="242.04" r="242.04"/><path class="cls-2" d="M403.16,337.54c-.06,15.71-11.74,29.58-27.22,32.57a28,28,0,0,1-5.25.46H344v-3.25c0-41.27.08-82.54,0-123.82,0-16.53-2.68-32.6-10-47.72a101.28,101.28,0,0,0-38.28-42.94,98.56,98.56,0,0,0-60-15.09c-31.8,2.19-57,16.32-75.88,41.61a96.13,96.13,0,0,0-19.29,55.21c-.27,7.67-.47,15.35-.48,23q-.06,54.84,0,109.68v3.13a8.7,8.7,0,0,1-1.52.22c-8.9,0-17.8.17-26.68-.19-14.94-.61-28.37-13-30.43-27.63a56.49,56.49,0,0,1-.55-7.8c0-21.82-.15-43.63,0-65.45.11-13.32,5.74-24,17.85-30.15,4.69-2.37,6-4.89,6.31-9.8a129.53,129.53,0,0,1,15-53.5,139.34,139.34,0,0,1,38.63-45.82c18.62-14.32,39.57-23.48,62.83-26.71,37.51-5.21,71.92,2.9,102.36,25.64,27.9,20.84,45.54,48.34,52.71,82.22,1.6,7.55,2,15.37,2.78,23.08.16,1.49.51,2.27,2,2.87,13.75,5.58,21.87,17.31,21.92,31.84Q403.27,303.4,403.16,337.54Z"/><path class="cls-2" d="M177.59,356.85a20.58,20.58,0,0,1-1,6.43c-1.88,5.35-6.67,8.14-11.69,7.18-4.43-.84-8.14-5.39-8.67-10.72-.1-1.28-.14-2.57-.12-3.86V244.57c0-4.59,1.09-8.54,4.4-11.33s6.86-3.31,10.6-1.44,5.83,5.25,6.39,9.88a27.37,27.37,0,0,1,.13,3Q177.65,300.78,177.59,356.85Z"/><path class="cls-2" d="M328.3,300.66v56.51c0,6.71-2.79,11.28-7.77,13-6.27,2.13-12.71-2.68-13.56-10.14a22.92,22.92,0,0,1-.14-2.75v-113c0-6.91,3-11.62,8.22-13.15,6.33-1.86,12.76,3.48,13.16,11.15.23,4.3.1,8.63.1,13Q328.33,277.94,328.3,300.66Z"/></g></g></g></svg>