<svg width="50" height="50" viewBox="0 0 50 50" xmlns="http://www.w3.org/2000/svg"><title>Icon/ play-white</title><g id="Styleguide" fill="none" fill-rule="evenodd"><g id="-ICONS---White" transform="translate(-569 -968)" fill="#FFF"><g id="Icon/-play-white" transform="translate(569 968)"><path d="M25 50C11.193 50 0 38.807 0 25S11.193 0 25 0s25 11.193 25 25-11.193 25-25 25zm0-2.174c12.606 0 22.826-10.22 22.826-22.826S37.606 2.174 25 2.174 2.174 12.394 2.174 25 12.394 47.826 25 47.826zM31.736 25l-9.997-6.665v13.33L31.736 25zm-12.17-10.727L35.655 25l-16.09 10.727V14.273z" fill-rule="nonzero" id="Combined-Shape-Copy"/></g></g></g></svg>