<svg width="120" height="164" xmlns="http://www.w3.org/2000/svg" xmlns:xlink="http://www.w3.org/1999/xlink"><defs><path id="a" d="M0 86h92V0H0z"/></defs><g fill="none" fill-rule="evenodd"><text font-family="ProximaNova-Bold, Proxima Nova" font-size="18" font-weight="bold" fill="#4A4A4A" transform="translate(-2)"><tspan x="21.267" y="163">Attendees</tspan></text><text font-family="ProximaNova-Bold, Proxima Nova" font-size="45" font-weight="bold" letter-spacing="-.729" fill="#4A4A4A" transform="translate(-2)"><tspan x="2.2" y="134">1800+</tspan></text><g transform="translate(15)"><path d="M76.831 70h-2.338v-2.324h1.17V45.598c0-5.3-4.523-9.296-10.52-9.296h-2.338c-7.544 0-11.218-3.506-13.555-12.938L48 18.584 50.263 18l1.253 4.794c2.345 9.457 5.64 11.184 11.289 11.184h2.338c7.33 0 12.857 4.996 12.857 11.62v23.24c0 .641-.522 1.162-1.169 1.162M56 86h-2.318V44.377c-1.36-1.434-6.318-6.955-8.682-13.585L47.182 30c2.515 7.055 8.415 13.011 8.475 13.07.22.22.343.519.343.83V86z" fill="#2989C9"/><path d="M72 86h-2V50.156c0-.638.447-1.156 1-1.156h2v2.313h-1V86z" fill="#2989C9"/><mask id="b" fill="#fff"><use xlink:href="#a"/></mask><path fill="#2989C9" mask="url(#b)" d="M62 86h2V66h-2zm1-67.714c-3.44 0-4.667 2.952-4.667 5.714 0 2.762 1.227 5.714 4.667 5.714 3.44 0 4.667-2.952 4.667-5.714 0-2.762-1.227-5.714-4.667-5.714M63 32c-4.187 0-7-3.215-7-8s2.813-8 7-8c4.187 0 7 3.215 7 8s-2.813 8-7 8M38.25 86h-2.31V44.123c0-.31.122-.607.342-.826.072-.073 7.368-7.433 9.164-15.472 1.298-5.81 2.211-10.118 2.211-10.118a2.079 2.079 0 0 0-.331-1.588 1.656 1.656 0 0 0-1.114-.701c-.718-.153-1.202-.11-1.547.12-.546.361-.819 1.24-.954 1.913l-1.306 5.566c-2.312 9.453-5.94 12.964-13.393 12.964h-2.31c-5.925 0-10.393 4-10.393 9.305v22.102h1.155v2.327h-2.31A1.159 1.159 0 0 1 14 68.55V45.286c0-6.631 5.46-11.632 12.702-11.632h2.31c5.58 0 8.836-1.73 11.148-11.182l1.296-5.516c.312-1.573.967-2.716 1.939-3.36.876-.58 1.962-.738 3.226-.467 1 .145 1.945.732 2.586 1.641.679.96.94 2.197.713 3.397-.004.026-.92 4.345-2.22 10.169-1.736 7.767-7.906 14.637-9.45 16.262V86z"/><path d="M22 86h-2V51.312h-1V49h2c.553 0 1 .518 1 1.156V86zm6 0h2V66h-2zm1-67.714c-3.44 0-4.667 2.952-4.667 5.714 0 2.762 1.227 5.714 4.667 5.714 3.44 0 4.667-2.952 4.667-5.714 0-2.762-1.227-5.714-4.667-5.714M29 32c-4.187 0-7-3.215-7-8s2.813-8 7-8c4.187 0 7 3.215 7 8s-2.813 8-7 8m61.846 40h-2.308v-2.323h1.154V46.452c0-7.074-5.784-8.13-9.23-8.13H77V36h3.462C87.687 36 92 39.907 92 46.452v24.387c0 .64-.516 1.161-1.154 1.161" fill="#2989C9" mask="url(#b)"/><path d="M86 86h-2V52.167c0-.644.447-1.167 1-1.167h2v2.333h-1V86zm-10 0h2V73h-2zm2-63.667c-3.412 0-3.678 3.573-3.678 4.667 0 1.094.266 4.667 3.678 4.667s3.678-3.573 3.678-4.667c0-1.094-.266-4.667-3.678-4.667M78 34c-3.59 0-6-2.813-6-7 0-4.187 2.41-7 6-7s6 2.813 6 7c0 4.187-2.41 7-6 7M3.462 72H1.154C.516 72 0 71.48 0 70.839V46.452C0 39.907 4.313 36 11.538 36H15v2.323h-3.462c-3.446 0-9.23 1.055-9.23 8.129v23.225h1.154V72z" fill="#2989C9" mask="url(#b)"/><path d="M8 86H6V53.333H5V51h2c.553 0 1 .523 1 1.167V86zm6 0h2V73h-2zm0-63.667c-3.412 0-3.678 3.573-3.678 4.667 0 1.094.266 4.667 3.678 4.667s3.678-3.573 3.678-4.667c0-1.094-.266-4.667-3.678-4.667M14 34c-3.59 0-6-2.813-6-7 0-4.187 2.41-7 6-7s6 2.813 6 7c0 4.187-2.41 7-6 7" fill="#2989C9" mask="url(#b)"/><path d="M46 8c-.553 0-1-.512-1-1.143V1.143C45 .512 45.447 0 46 0c.553 0 1 .512 1 1.143v5.714C47 7.488 46.553 8 46 8m-8.084 3a1.08 1.08 0 0 1-.767-.318L33.318 6.85a1.083 1.083 0 1 1 1.533-1.533l3.831 3.833a1.083 1.083 0 0 1-.766 1.85m16.168 0a1.083 1.083 0 0 1-.766-1.85l3.831-3.833a1.085 1.085 0 0 1 1.533 1.533l-3.831 3.832a1.08 1.08 0 0 1-.767.318" fill="#505050" mask="url(#b)"/></g></g></svg>