<svg width="92" height="145" xmlns="http://www.w3.org/2000/svg"><g fill="none" fill-rule="evenodd"><text font-family="ProximaNova-Bold, Proxima Nova" font-size="18" font-weight="bold" fill="#4A4A4A" transform="translate(-5 -11)"><tspan x="15.09" y="155">Sessions</tspan></text><text font-family="ProximaNova-Bold, Proxima Nova" font-size="45" font-weight="bold" letter-spacing="-.729" fill="#4A4A4A" transform="translate(-5 -11)"><tspan x="13.123" y="126">50+</tspan></text><g fill="#9BC653"><path d="M80.848 66c-.39 0-.772-.166-1.04-.472L69.07 53.362H41.818c-3.843 0-6.97-3.15-6.97-7.022V22.468c0-3.871 3.127-7.021 6.97-7.021h12.546V7.02c0-2.322-1.877-4.212-4.182-4.212H6.97c-2.306 0-4.182 1.89-4.182 4.212v23.873c0 2.322 1.876 4.212 4.182 4.212h4.182c.77 0 1.393.628 1.393 1.405v8.945l8.717-9.878c.263-.3.644-.472 1.041-.472h6.97v2.809h-6.344L12.193 50.08a1.387 1.387 0 0 1-1.536.38c-.541-.207-.9-.73-.9-1.312V37.915H6.97c-3.843 0-6.97-3.15-6.97-7.021V7.02C0 3.15 3.127 0 6.97 0h43.212c3.843 0 6.97 3.15 6.97 7.021v9.83c0 .777-.624 1.404-1.394 1.404h-13.94c-2.305 0-4.182 1.89-4.182 4.213V46.34c0 2.323 1.877 4.213 4.182 4.213h27.879c.397 0 .778.172 1.041.472l8.717 9.878v-8.946c0-.776.623-1.404 1.393-1.404h4.182c2.306 0 4.182-1.89 4.182-4.213V22.468c0-2.323-1.876-4.213-4.182-4.213H62.727v-2.808H85.03c3.843 0 6.97 3.15 6.97 7.021V46.34c0 3.872-3.127 7.022-6.97 7.022h-2.788v11.234c0 .583-.358 1.105-.899 1.313a1.383 1.383 0 0 1-.495.091"/><path d="M50.182 37H42v-2.727h8.182a4.096 4.096 0 0 0 4.09-4.091V22H57v8.182A6.826 6.826 0 0 1 50.182 37M66.55 22a1.45 1.45 0 0 1-1.025-.421l-4.1-4.063a1.426 1.426 0 0 1 0-2.032l4.1-4.063a1.457 1.457 0 0 1 2.05 0c.567.56.567 1.47 0 2.032L64.5 16.5l3.075 3.047c.567.562.567 1.47 0 2.032-.283.28-.654.421-1.025.421m-41.1 20a1.45 1.45 0 0 1-1.025-.421 1.426 1.426 0 0 1 0-2.032L27.5 36.5l-3.075-3.047a1.426 1.426 0 0 1 0-2.032 1.457 1.457 0 0 1 2.05 0l4.1 4.063c.567.56.567 1.47 0 2.032l-4.1 4.063c-.283.28-.654.421-1.025.421"/></g></g></svg>