<svg width="88" height="161" xmlns="http://www.w3.org/2000/svg"><g fill="none" fill-rule="evenodd"><text font-family="ProximaNova-Bold, Proxima Nova" font-size="18" font-weight="bold" fill="#4A4A4A" transform="translate(-7)"><tspan x="13.209" y="157">Speakers</tspan></text><text font-family="ProximaNova-Bold, Proxima Nova" font-size="45" font-weight="bold" letter-spacing="-.729" fill="#4A4A4A" transform="translate(-7)"><tspan x="14.811" y="128">75+</tspan></text><path d="M59 36h-2.143v-7.389c0-5.505-3.854-9.5-9.164-9.5h-7.386c-5.31 0-9.164 3.995-9.164 9.5V36H29v-7.389C29 21.991 33.861 17 40.307 17h7.386C54.14 17 59 21.992 59 28.611V36zM44.5 2.143c-3.195 0-4.333 2.767-4.333 5.357 0 2.59 1.138 5.357 4.333 5.357 3.195 0 4.333-2.767 4.333-5.357 0-2.59-1.138-5.357-4.333-5.357M44.5 15c-3.888 0-6.5-3.014-6.5-7.5C38 3.014 40.612 0 44.5 0S51 3.014 51 7.5c0 4.486-2.612 7.5-6.5 7.5" fill="#61C2D7"/><path d="M44.5 53.143c-3.195 0-4.333 2.767-4.333 5.357 0 2.59 1.138 5.357 4.333 5.357 3.195 0 4.333-2.767 4.333-5.357 0-2.59-1.138-5.357-4.333-5.357M44.5 66c-3.888 0-6.5-3.014-6.5-7.5 0-4.486 2.612-7.5 6.5-7.5s6.5 3.014 6.5 7.5c0 4.486-2.612 7.5-6.5 7.5m-29-12.857c-3.195 0-4.333 2.767-4.333 5.357 0 2.59 1.138 5.357 4.333 5.357 3.195 0 4.333-2.767 4.333-5.357 0-2.59-1.138-5.357-4.333-5.357M15.5 66C11.612 66 9 62.986 9 58.5c0-4.486 2.612-7.5 6.5-7.5s6.5 3.014 6.5 7.5c0 4.486-2.612 7.5-6.5 7.5m42.431 14c-.515 0-.97-.383-1.053-.919-.835-5.323-4.504-8.9-9.133-8.9h-7.49c-4.626 0-8.296 3.577-9.133 8.9a1.07 1.07 0 0 1-1.223.904 1.087 1.087 0 0 1-.885-1.25C30.022 72.316 34.54 68 40.254 68h7.491c5.718 0 10.235 4.315 11.241 10.737A1.087 1.087 0 0 1 57.931 80" fill="#4A4A4A"/><path d="M28.931 80c-.515 0-.968-.382-1.053-.919-.836-5.323-4.505-8.9-9.133-8.9h-7.49c-4.628 0-8.297 3.577-9.133 8.9a1.07 1.07 0 0 1-1.223.904 1.087 1.087 0 0 1-.885-1.25C1.02 72.316 5.539 68 11.254 68h7.491c5.716 0 10.234 4.315 11.241 10.737A1.087 1.087 0 0 1 28.931 80M72.5 53.143c-3.195 0-4.333 2.767-4.333 5.357 0 2.59 1.138 5.357 4.333 5.357 3.195 0 4.333-2.767 4.333-5.357 0-2.59-1.138-5.357-4.333-5.357M72.5 66c-3.888 0-6.5-3.014-6.5-7.5 0-4.486 2.612-7.5 6.5-7.5s6.5 3.014 6.5 7.5c0 4.486-2.612 7.5-6.5 7.5M59.069 80a1.087 1.087 0 0 1-1.055-1.263C59.02 72.315 63.539 68 69.254 68h7.491c5.716 0 10.234 4.315 11.241 10.736a1.087 1.087 0 0 1-.885 1.249 1.067 1.067 0 0 1-1.223-.905c-.836-5.322-4.505-8.898-9.133-8.898h-7.49c-4.628 0-8.297 3.576-9.133 8.9a1.076 1.076 0 0 1-1.053.918" fill="#4A4A4A"/><path d="M25.15 41.714h38.7v-3.428h-38.7v3.428zM64.925 44h-40.85C23.481 44 23 43.49 23 42.857v-5.714c0-.632.48-1.143 1.075-1.143h40.85c.594 0 1.075.51 1.075 1.143v5.714C66 43.49 65.52 44 64.925 44z" fill="#61C2D7"/><path d="M28 68c-.553 0-1-.465-1-1.04V43.04c0-.575.447-1.04 1-1.04.553 0 1 .465 1 1.04v23.92c0 .575-.447 1.04-1 1.04m32-1.04V43.04c0-.575.447-1.04 1-1.04.553 0 1 .465 1 1.04v23.92c0 .575-.447 1.04-1 1.04-.553 0-1-.465-1-1.04zM38.045 35.833h12.909l.008-1.217.885-7.121a.284.284 0 0 0-.07-.23.285.285 0 0 0-.218-.098H37.441a.285.285 0 0 0-.218.098.284.284 0 0 0-.07.23l.892 7.255v1.083zM53.105 38H35.894v-3.182l-.875-7.054a2.47 2.47 0 0 1 .592-1.932A2.428 2.428 0 0 1 37.44 25h14.118c.7 0 1.366.302 1.83.832.463.528.68 1.232.592 1.932l-.876 7.054V38z" fill="#61C2D7"/></g></svg>