<svg width="342" height="125" xmlns="http://www.w3.org/2000/svg"><g fill="none" fill-rule="evenodd"><path d="M137.009 60.933V20.024h29.095v7.667h-20.342v8.648h19.91v7.666h-19.91v9.262h20.342v7.666h-29.095zm54.849 0V43.024c0-4.11-2.158-5.52-5.486-5.52-3.082 0-5.486 1.717-6.78 3.496v19.933h-7.83V31.31h7.83v3.864c1.91-2.269 5.547-4.6 10.417-4.6 6.534 0 9.677 3.68 9.677 9.446v20.914h-7.828zm35.062 0v-3.802c-2.343 2.944-5.61 4.538-9.185 4.538-7.52 0-13.191-5.642-13.191-15.517 0-9.69 5.61-15.579 13.191-15.579 3.514 0 6.842 1.534 9.185 4.539V20.024h7.89v40.91h-7.89zm0-9.568V40.877c-1.295-1.962-4.13-3.373-6.78-3.373-4.439 0-7.521 3.496-7.521 8.648 0 5.09 3.082 8.587 7.52 8.587 2.65 0 5.486-1.411 6.78-3.374zm14.658 9.568V20.024h7.829v40.91h-7.829zm12.686-14.842c0-8.587 6.35-15.518 15.41-15.518 8.877 0 14.918 6.624 14.918 16.315v1.717h-22.13c.494 3.742 3.514 6.87 8.569 6.87 2.774 0 6.04-1.104 7.952-2.944l3.452 5.029c-2.96 2.699-7.644 4.11-12.267 4.11-9.062 0-15.904-6.073-15.904-15.58zm15.41-9.323c-4.869 0-6.965 3.619-7.335 6.563h14.671c-.185-2.822-2.157-6.563-7.335-6.563zm17.002 20.301l3.39-5.458c2.157 2.024 6.595 4.048 10.294 4.048 3.39 0 4.993-1.35 4.993-3.19 0-2.024-2.712-2.576-5.98-3.189-5.116-.981-11.711-2.27-11.711-9.384 0-4.968 4.376-9.323 12.205-9.323 5.055 0 9.061 1.718 12.02 4.048l-3.144 5.336c-1.787-1.901-5.178-3.434-8.814-3.434-2.836 0-4.685 1.288-4.685 2.944 0 1.717 2.342 2.208 5.67 2.882 5.117.982 11.96 2.392 11.96 9.814 0 5.397-4.624 9.506-12.884 9.506-5.178 0-10.17-1.717-13.314-4.6zm28.404 0l3.39-5.458c2.158 2.024 6.596 4.048 10.295 4.048 3.39 0 4.993-1.35 4.993-3.19 0-2.024-2.713-2.576-5.98-3.189-5.116-.981-11.712-2.27-11.712-9.384 0-4.968 4.377-9.323 12.205-9.323 5.055 0 9.062 1.718 12.02 4.048l-3.143 5.336c-1.788-1.901-5.178-3.434-8.815-3.434-2.835 0-4.685 1.288-4.685 2.944 0 1.717 2.343 2.208 5.671 2.882 5.117.982 11.959 2.392 11.959 9.814 0 5.397-4.623 9.506-12.883 9.506-5.178 0-10.171-1.717-13.315-4.6zm-177.33 63.664V79.824h5.116v40.91h-5.116zm35.123 0v-4.416c-2.219 3.006-5.856 5.152-10.047 5.152-7.767 0-13.253-5.888-13.253-15.517 0-9.445 5.424-15.579 13.253-15.579 4.006 0 7.643 1.963 10.047 5.214V79.824h4.623v40.91h-4.623zm0-8.034V99.267c-1.664-2.576-5.24-4.784-8.938-4.784-5.98 0-9.554 4.906-9.554 11.469s3.575 11.408 9.554 11.408c3.699 0 7.274-2.085 8.938-4.661zm11.145-6.808c0-8.587 6.164-15.518 14.67-15.518 9 0 14.302 6.992 14.302 15.886v1.165h-24.102c.37 5.581 4.315 10.243 10.725 10.243 3.39 0 6.843-1.35 9.185-3.742l2.22 3.006c-2.96 2.944-6.966 4.538-11.836 4.538-8.815 0-15.164-6.317-15.164-15.578zm14.61-11.715c-6.35 0-9.494 5.336-9.74 9.875h19.54c-.061-4.416-3.02-9.875-9.8-9.875zm39.438 26.557v-3.373c-2.466 2.699-5.856 4.11-9.863 4.11-5.055 0-10.417-3.374-10.417-9.814 0-6.624 5.362-9.752 10.417-9.752 4.068 0 7.459 1.288 9.863 4.048v-5.336c0-3.987-3.206-6.256-7.52-6.256-3.576 0-6.473 1.288-9.124 4.11l-2.157-3.19c3.205-3.312 7.027-4.907 11.897-4.907 6.287 0 11.527 2.822 11.527 9.998v20.362h-4.623zm0-6.256v-5.581c-1.788-2.453-4.932-3.68-8.199-3.68-4.315 0-7.335 2.699-7.335 6.501 0 3.742 3.02 6.44 7.335 6.44 3.267 0 6.411-1.226 8.199-3.68zm10.282 2.331l2.404-3.312c1.972 2.27 5.732 4.232 9.8 4.232 4.562 0 7.028-2.147 7.028-5.09 0-3.251-3.637-4.11-7.644-5.091-5.054-1.166-10.787-2.515-10.787-8.648 0-4.6 4.007-8.526 11.095-8.526 5.055 0 8.63 1.902 11.034 4.294l-2.157 3.189c-1.788-2.147-5.055-3.741-8.877-3.741-4.068 0-6.595 2.024-6.595 4.661 0 2.821 3.39 3.619 7.274 4.539 5.177 1.165 11.157 2.637 11.157 9.2 0 4.968-4.007 8.954-11.712 8.954-4.87 0-9-1.472-12.02-4.661zM45.833 113.75c0 4.136 3.439 7.5 7.667 7.5s7.667-3.364 7.667-7.5H45.833zM53.5 125c-6.34 0-11.5-5.047-11.5-11.25v-1.875c0-1.035.859-1.875 1.917-1.875h19.166c1.058 0 1.917.84 1.917 1.875v1.875c0 6.203-5.16 11.25-11.5 11.25z" fill="#4A4A4A"/><path d="M41.6 45.786c-2.094 0-3.8 1.7-3.8 3.785 0 2.086 1.706 3.786 3.8 3.786h3.8v-3.786c0-2.085-1.706-3.785-3.8-3.785zm19 7.571h3.8c2.098 0 3.8-1.7 3.8-3.786a3.797 3.797 0 0 0-3.8-3.785c-2.098 0-3.8 1.7-3.8 3.785v3.786zM58.7 95c-1.049 0-1.9-.848-1.9-1.893V57.143h-7.6v35.964A1.897 1.897 0 0 1 47.3 95c-1.049 0-1.9-.848-1.9-1.893V57.143h-3.8c-4.191 0-7.6-3.396-7.6-7.572C34 45.396 37.409 42 41.6 42s7.6 3.396 7.6 7.571v3.786h7.6v-3.786c0-4.175 3.409-7.571 7.6-7.571s7.6 3.396 7.6 7.571c0 4.176-3.409 7.572-7.6 7.572h-3.8v35.964A1.897 1.897 0 0 1 58.7 95z" fill="#F27A4A"/><path d="M66.125 95h-26.25C38.84 95 38 94.104 38 93s.84-2 1.875-2h26.25C67.16 91 68 91.896 68 93s-.84 2-1.875 2m0 9h-26.25c-1.035 0-1.875-.896-1.875-2s.84-2 1.875-2h26.25c1.035 0 1.875.896 1.875 2s-.84 2-1.875 2" fill="#4A4A4A"/><path d="M53 11c-1.104 0-2-.821-2-1.833V1.833C51 .821 51.896 0 53 0s2 .821 2 1.833v7.334C55 10.179 54.104 11 53 11m-21 6c-.69 0-1.362-.326-1.734-.915l-3.998-6.338c-.552-.875-.224-1.994.735-2.5.952-.508 2.175-.208 2.731.67l3.998 6.338c.552.875.224 1.995-.732 2.5A2.12 2.12 0 0 1 32 17M15.167 34c-.311 0-.626-.084-.915-.268l-6.334-3.999c-.878-.551-1.178-1.775-.673-2.73.509-.96 1.625-1.288 2.503-.732l6.334 3.998c.878.552 1.178 1.776.673 2.731-.34.644-.955 1-1.588 1m-6 21H1.833C.821 55 0 54.104 0 53s.821-2 1.833-2h7.334c1.012 0 1.833.896 1.833 2s-.821 2-1.833 2m-.334 26c-.633 0-1.248-.36-1.588-1-.505-.955-.205-2.179.673-2.73l6.334-3.999c.875-.56 1.994-.223 2.503.732.505.956.205 2.18-.673 2.73l-6.334 4c-.29.183-.604.267-.915.267m88.337 0a1.69 1.69 0 0 1-.915-.268l-6.338-4c-.878-.552-1.178-1.776-.67-2.732.506-.956 1.625-1.284 2.5-.732l6.338 4c.875.552 1.175 1.776.67 2.732-.337.64-.955 1-1.585 1m6.997-26h-7.334C95.821 55 95 54.104 95 53s.821-2 1.833-2h7.334c1.012 0 1.833.896 1.833 2s-.821 2-1.833 2M90.83 34c-.63 0-1.248-.36-1.585-1-.505-.956-.205-2.18.67-2.732l6.338-4c.875-.551 1.994-.227 2.5.733.508.956.208 2.18-.67 2.731l-6.338 4c-.29.184-.604.268-.915.268M75 17a2.12 2.12 0 0 1-1-.245c-.956-.505-1.284-1.626-.732-2.5l4-6.341c.552-.875 1.78-1.172 2.732-.67.956.505 1.284 1.625.732 2.5l-4 6.34c-.368.59-1.044.916-1.732.916m-3.749 69.48A38.105 38.105 0 0 0 91 53.083C91 42.696 86.907 33 79.47 25.765 72.042 18.53 62.2 14.685 51.856 15.02c-19.422.575-35.94 16.855-36.815 36.296-.661 14.658 6.897 28.136 19.726 35.176A5.741 5.741 0 0 1 37.723 91h3.8a9.533 9.533 0 0 0-4.929-7.847c-11.548-6.335-18.354-18.47-17.758-31.666.79-17.495 15.653-32.145 33.133-32.66 9.288-.327 18.165 3.16 24.857 9.667C83.518 35.005 87.2 43.735 87.2 53.082a34.304 34.304 0 0 1-17.773 30.06A9.58 9.58 0 0 0 64.472 91h3.803a5.766 5.766 0 0 1 2.976-4.52" fill="#F2BF42"/><path d="M64.195 91.521v18.646H41.813l-.011-18.657c0-.177-.06-.338-.071-.51H38c.019.172.07.337.07.51l.012 20.573c0 1.062.84 1.917 1.866 1.917H66.06c1.03 0 1.865-.855 1.865-1.917V91.521c0-.176.056-.345.075-.521h-3.735c-.007.176-.07.341-.07.521" fill="#4A4A4A"/></g></svg>